<?xml version="1.0" encoding="UTF-8" standalone="no"?>
<svg
   xmlns:dc="http://purl.org/dc/elements/1.1/"
   xmlns:cc="http://creativecommons.org/ns#"
   xmlns:rdf="http://www.w3.org/1999/02/22-rdf-syntax-ns#"
   xmlns:svg="http://www.w3.org/2000/svg"
   xmlns="http://www.w3.org/2000/svg"
   xmlns:sodipodi="http://sodipodi.sourceforge.net/DTD/sodipodi-0.dtd"
   xmlns:inkscape="http://www.inkscape.org/namespaces/inkscape"
   inkscape:version="1.0 (4035a4fb49, 2020-05-01)"
   sodipodi:docname="fb-share-arrow.svg"
   xml:space="preserve"
   style="enable-background:new 0 0 512 512;"
   viewBox="0 0 512 512"
   y="0px"
   x="0px"
   id="Layer_1"
   version="1.1"><metadata
   id="metadata1627"><rdf:RDF><cc:Work
       rdf:about=""><dc:format>image/svg+xml</dc:format><dc:type
         rdf:resource="http://purl.org/dc/dcmitype/StillImage" /></cc:Work></rdf:RDF></metadata><defs
   id="defs1625" /><sodipodi:namedview
   inkscape:current-layer="Layer_1"
   inkscape:window-maximized="1"
   inkscape:window-y="-8"
   inkscape:window-x="-8"
   inkscape:cy="331.10033"
   inkscape:cx="142.72575"
   inkscape:zoom="1.1739077"
   showgrid="false"
   id="namedview1623"
   inkscape:window-height="1017"
   inkscape:window-width="1920"
   inkscape:pageshadow="2"
   inkscape:pageopacity="0"
   guidetolerance="10"
   gridtolerance="10"
   objecttolerance="10"
   borderopacity="1"
   bordercolor="#666666"
   pagecolor="#ffffff" />
<g
   id="g1590">
	<g
   id="g1588">
		<path
   style="fill:#555555;fill-opacity:1;stroke-width:0.807432"
   id="path1586"
   d="M 505.18516,258.59224 295.77804,81.713722 V 197.59005 c -62.73683,2.77833 -121.25225,24.73852 -166.00792,62.54198 -47.977288,40.52392 -74.3995,94.40368 -74.3995,151.71479 V 456.6948 L 80.909017,417.37601 C 120.7545,356.02803 197.02881,317.91807 279.96337,317.91807 c 5.25896,0 10.54605,0.15733 15.81467,0.46899 v 117.08369 z m -225.22179,36.33638 c -74.27475,0 -143.78339,27.30239 -191.469004,73.37998 C 111.89351,283.58083 202.05145,220.27748 309.38581,220.27748 h 13.60777 V 137.21195 L 466.69526,258.59149 322.99358,379.97104 v -82.1743 l -11.93502,-1.24891 c -10.2693,-1.07378 -20.73101,-1.61921 -31.09519,-1.61921 z" />
	</g>
</g>
<g
   id="g1592">
</g>
<g
   id="g1594">
</g>
<g
   id="g1596">
</g>
<g
   id="g1598">
</g>
<g
   id="g1600">
</g>
<g
   id="g1602">
</g>
<g
   id="g1604">
</g>
<g
   id="g1606">
</g>
<g
   id="g1608">
</g>
<g
   id="g1610">
</g>
<g
   id="g1612">
</g>
<g
   id="g1614">
</g>
<g
   id="g1616">
</g>
<g
   id="g1618">
</g>
<g
   id="g1620">
</g>
</svg>
