<?xml version="1.0" encoding="UTF-8" standalone="no"?>
<svg
   xmlns:dc="http://purl.org/dc/elements/1.1/"
   xmlns:cc="http://creativecommons.org/ns#"
   xmlns:rdf="http://www.w3.org/1999/02/22-rdf-syntax-ns#"
   xmlns:svg="http://www.w3.org/2000/svg"
   xmlns="http://www.w3.org/2000/svg"
   xmlns:sodipodi="http://sodipodi.sourceforge.net/DTD/sodipodi-0.dtd"
   xmlns:inkscape="http://www.inkscape.org/namespaces/inkscape"
   inkscape:version="1.0 (4035a4fb49, 2020-05-01)"
   sodipodi:docname="li-hart-small.svg"
   xml:space="preserve"
   style="enable-background:new 0 0 502.735 502.735;"
   viewBox="0 0 502.735 502.735"
   y="0px"
   x="0px"
   id="Layer_1"
   version="1.1"><metadata
   id="metadata3417"><rdf:RDF><cc:Work
       rdf:about=""><dc:format>image/svg+xml</dc:format><dc:type
         rdf:resource="http://purl.org/dc/dcmitype/StillImage" /></cc:Work></rdf:RDF></metadata><defs
   id="defs3415" /><sodipodi:namedview
   inkscape:current-layer="layer2"
   inkscape:window-maximized="1"
   inkscape:window-y="-8"
   inkscape:window-x="-8"
   inkscape:cy="251.36749"
   inkscape:cx="251.36749"
   inkscape:zoom="1.6907516"
   showgrid="false"
   id="namedview3413"
   inkscape:window-height="1017"
   inkscape:window-width="1920"
   inkscape:pageshadow="2"
   inkscape:pageopacity="0"
   guidetolerance="10"
   gridtolerance="10"
   objecttolerance="10"
   borderopacity="1"
   bordercolor="#666666"
   pagecolor="#ffffff" />
<g
   style="fill:#77280c;fill-opacity:1"
   id="g3352">
	<g
   style="fill:#77280c;fill-opacity:1"
   id="g3350">
		<path
   style="fill:#77280c;fill-opacity:1"
   id="path3348"
   d="M 495.754,115.535 C 478.687,54.735 428.554,18.468 391.221,5.668 348.554,-9.265 297.354,5.668 251.488,46.201 205.621,6.735 154.421,-7.132 111.754,6.735 74.421,20.601 24.288,56.868 7.221,116.601 c -11.733,39.467 -12.8,103.467 49.067,181.333 27.733,35.2 70.4,85.333 105.6,124.8 67.2,75.733 77.867,80 87.467,80 1.067,0 1.067,0 2.133,0 1.066,0 2.133,0 2.133,0 9.6,0 19.2,-4.267 86.4,-81.067 35.2,-40.533 77.867,-90.667 105.6,-124.8 61.867,-77.866 61.867,-141.866 50.133,-181.332 z m -82.133,155.733 c -49.067,61.867 -133.333,158.933 -162.133,185.6 -28.8,-26.667 -113.067,-123.733 -162.133,-185.6 -40.533,-50.133 -55.467,-99.2 -42.667,-142.933 12.8,-44.8 50.133,-71.467 77.867,-81.067 30.933,-11.733 72.533,4.267 110.933,41.6 7.467,7.467 18.133,8.533 25.6,3.2 2.133,-1.067 4.267,-2.133 6.4,-4.267 38.4,-36.267 80,-52.267 110.933,-41.6 27.733,10.667 65.067,37.333 77.867,82.133 12.8,42.667 -2.134,92.801 -42.667,142.934 z" />
	</g>
</g>




<g
   id="g3382">
</g>
<g
   id="g3384">
</g>
<g
   id="g3386">
</g>
<g
   id="g3388">
</g>
<g
   id="g3390">
</g>
<g
   id="g3392">
</g>
<g
   id="g3394">
</g>
<g
   id="g3396">
</g>
<g
   id="g3398">
</g>
<g
   id="g3400">
</g>
<g
   id="g3402">
</g>
<g
   id="g3404">
</g>
<g
   id="g3406">
</g>
<g
   id="g3408">
</g>
<g
   id="g3410">
</g>
<g
   inkscape:label="Layer 1"
   id="layer2"
   inkscape:groupmode="layer"><path
     id="path3981"
     d="M 239.47638,444.32901 C 207.84085,412.1576 140.95747,335.11858 96.342471,279.46151 78.400487,257.07894 70.996041,246.47692 62.883751,231.55382 54.807411,216.69685 48.196036,199.33315 45.318097,185.42049 37.985526,149.97306 45.64278,116.71385 67.64997,88.422212 71.361742,83.650495 81.502254,73.41311 86.850742,69.038013 97.425521,60.387779 113.32754,51.38898 125.09229,47.397493 c 19.17114,-6.504289 39.76276,-4.026022 63.39592,7.629899 14.01832,6.913859 27.61681,16.56605 43.19199,30.6576 8.06543,7.297145 10.15371,8.578856 15.61306,9.582709 3.13623,0.576684 4.38246,0.539808 7.33157,-0.216945 4.93396,-1.266074 10.31486,-4.460967 15.29008,-9.078435 25.56959,-23.730993 54.08676,-38.94536 79.07625,-42.188455 9.65356,-1.252823 20.8236,-0.224144 28.96608,2.667565 5.7536,2.043323 16.94373,7.640281 23.1552,11.581516 35.14784,22.301635 56.33604,56.031253 58.98948,93.905763 2.28098,32.55788 -10.25261,68.9869 -36.22689,105.29389 -18.97999,26.53033 -96.23192,117.94837 -140.23612,165.95197 -12.82229,13.98766 -31.14748,32.82563 -31.9321,32.82563 -0.4091,0 -5.91279,-5.25653 -12.23043,-11.68119 z"
     style="fill:#fff3f0;stroke:none;stroke-width:0.591453;fill-opacity:1" /></g></svg>
