<?xml version="1.0" encoding="UTF-8" standalone="no"?>
<svg
   xmlns:dc="http://purl.org/dc/elements/1.1/"
   xmlns:cc="http://creativecommons.org/ns#"
   xmlns:rdf="http://www.w3.org/1999/02/22-rdf-syntax-ns#"
   xmlns:svg="http://www.w3.org/2000/svg"
   xmlns="http://www.w3.org/2000/svg"
   xmlns:sodipodi="http://sodipodi.sourceforge.net/DTD/sodipodi-0.dtd"
   xmlns:inkscape="http://www.inkscape.org/namespaces/inkscape"
   inkscape:version="1.0 (4035a4fb49, 2020-05-01)"
   sodipodi:docname="li-like-small.svg"
   xml:space="preserve"
   style="enable-background:new 0 0 232.665 232.665;"
   viewBox="0 0 232.665 232.665"
   y="0px"
   x="0px"
   id="Capa_1"
   version="1.1"><metadata
   id="metadata1535"><rdf:RDF><cc:Work
       rdf:about=""><dc:format>image/svg+xml</dc:format><dc:type
         rdf:resource="http://purl.org/dc/dcmitype/StillImage" /><dc:title></dc:title></cc:Work></rdf:RDF></metadata><defs
   id="defs1533" /><sodipodi:namedview
   inkscape:current-layer="g1498"
   inkscape:window-maximized="1"
   inkscape:window-y="-8"
   inkscape:window-x="-8"
   inkscape:cy="123.31071"
   inkscape:cx="71.359406"
   inkscape:zoom="1.8266607"
   showgrid="false"
   id="namedview1531"
   inkscape:window-height="1017"
   inkscape:window-width="1920"
   inkscape:pageshadow="2"
   inkscape:pageopacity="0"
   guidetolerance="10"
   gridtolerance="10"
   objecttolerance="10"
   borderopacity="1"
   bordercolor="#666666"
   pagecolor="#ffffff" />
<g
   style="fill:#6699ff;fill-opacity:1;stroke:none;stroke-width:201.208;stroke-miterlimit:4;stroke-dasharray:none;stroke-opacity:1"
   transform="matrix(-0.98862553,0,0,0.84235294,223.6778,0.27372352)"
   id="g1498">
	<path
   style="fill:#003399;fill-opacity:1;stroke:none;stroke-width:208.54993586;stroke-miterlimit:4;stroke-dasharray:none;stroke-opacity:1"
   id="path1496"
   d="m 205.428,128.634 c 6.81,-8.589 9.181,-22.092 5.294,-33.304 -3.91,-11.281 -13.395,-17.998 -25.371,-17.998 H 136.36 c -0.162,0 -0.33,-0.019 -0.497,-0.302 -0.161,-0.276 -0.086,-0.42 -0.007,-0.563 6.795,-12.183 11.35,-25.426 14.908,-36.767 3.221,-10.264 1.771,-20.64 -3.975,-28.465 C 141.624,4.201 133.416,0 124.832,0 114.773,0 105.423,5.563 99.18,15.264 94.274,22.887 90.028,30.717 85.922,38.289 79.539,50.06 73.511,61.177 66.974,67.518 61.747,72.584 46.289,82.521 37.052,88.457 c -3.313,2.13 -6.256,3.968 -8.368,5.386 -3.799,2.55 -8.61,5.723 -8.61,12.43 v 79.825 c 0,8.241 5.996,15.127 14.142,16.373 l 27.227,4.158 c 26.337,17.039 51.792,26.036 73.664,26.036 6.078,0 11.935,-0.691 17.388,-2.056 12.962,-3.24 22.223,-9.323 27.514,-18.08 3.309,-5.476 4.446,-11.006 4.613,-15.684 4.776,-2.615 8.59,-6.74 11.017,-12.013 3.602,-7.825 3.639,-16.661 1.9,-23.703 9.013,-8.369 10.696,-22.351 7.889,-32.495 z m -18.754,25.629 c -2.15,1.156 -3.165,3.743 -2.108,5.944 3.784,7.878 3.233,24.127 -8.71,27.308 -2.242,0.598 -3.699,2.704 -3.405,5.006 0.909,7.13 -0.509,20.861 -22.857,26.447 -4.491,1.123 -9.322,1.697 -14.467,1.697 -19.089,0 -42.453,-7.903 -68.421,-24.957 -0.544,-0.357 -1.162,-0.598 -1.806,-0.696 l -28.871,-4.403 c -2.228,-0.341 -3.956,-2.257 -3.956,-4.511 v -79.825 c 0,-1.204 33.353,-20.624 43.171,-30.142 12.427,-12.053 21.31,-34.681 33.983,-54.373 4.405,-6.845 10.201,-9.759 15.584,-9.759 10.103,0 18.831,10.273 14.493,24.104 -4.018,12.804 -8.195,24.237 -13.934,34.529 -4.672,8.376 1.399,18.7 10.989,18.7 h 48.991 c 18.852,0 18.321,26.313 8.552,34.01 -1.676,1.32 -2.182,3.682 -1.175,5.563 3.519,6.572 2.861,20.566 -6.053,25.358 z" />
</g>
<g
   style="fill:#6699ff;fill-opacity:1;stroke:none;stroke-opacity:1"
   transform="matrix(-0.98862553,0,0,0.84235294,223.6778,0.27372352)"
   id="g1500">
</g>
<g
   style="fill:#6699ff;fill-opacity:1;stroke:none;stroke-opacity:1"
   transform="matrix(-0.98862553,0,0,0.84235294,223.6778,0.27372352)"
   id="g1502">
</g>
<g
   style="fill:#6699ff;fill-opacity:1;stroke:none;stroke-opacity:1"
   transform="matrix(-0.98862553,0,0,0.84235294,223.6778,0.27372352)"
   id="g1504">
</g>
<g
   style="fill:#6699ff;fill-opacity:1;stroke:none;stroke-opacity:1"
   transform="matrix(-0.98862553,0,0,0.84235294,223.6778,0.27372352)"
   id="g1506">
</g>
<g
   style="fill:#6699ff;fill-opacity:1;stroke:none;stroke-opacity:1"
   transform="matrix(-0.98862553,0,0,0.84235294,223.6778,0.27372352)"
   id="g1508">
</g>
<g
   style="fill:#6699ff;fill-opacity:1;stroke:none;stroke-opacity:1"
   transform="matrix(-0.98862553,0,0,0.84235294,223.6778,0.27372352)"
   id="g1510">
</g>
<g
   style="fill:#6699ff;fill-opacity:1;stroke:none;stroke-opacity:1"
   transform="matrix(-0.98862553,0,0,0.84235294,223.6778,0.27372352)"
   id="g1512">
</g>
<g
   style="fill:#6699ff;fill-opacity:1;stroke:none;stroke-opacity:1"
   transform="matrix(-0.98862553,0,0,0.84235294,223.6778,0.27372352)"
   id="g1514">
</g>
<g
   style="fill:#6699ff;fill-opacity:1;stroke:none;stroke-opacity:1"
   transform="matrix(-0.98862553,0,0,0.84235294,223.6778,0.27372352)"
   id="g1516">
</g>
<g
   style="fill:#6699ff;fill-opacity:1;stroke:none;stroke-opacity:1"
   transform="matrix(-0.98862553,0,0,0.84235294,223.6778,0.27372352)"
   id="g1518">
</g>
<g
   style="fill:#6699ff;fill-opacity:1;stroke:none;stroke-opacity:1"
   transform="matrix(-0.98862553,0,0,0.84235294,223.6778,0.27372352)"
   id="g1520">
</g>
<g
   style="fill:#6699ff;fill-opacity:1;stroke:none;stroke-opacity:1"
   transform="matrix(-0.98862553,0,0,0.84235294,223.6778,0.27372352)"
   id="g1522">
</g>
<g
   style="fill:#6699ff;fill-opacity:1;stroke:none;stroke-opacity:1"
   transform="matrix(-0.98862553,0,0,0.84235294,223.6778,0.27372352)"
   id="g1524">
</g>
<g
   style="fill:#6699ff;fill-opacity:1;stroke:none;stroke-opacity:1"
   transform="matrix(-0.98862553,0,0,0.84235294,223.6778,0.27372352)"
   id="g1526">
</g>
<g
   style="fill:#6699ff;fill-opacity:1;stroke:none;stroke-opacity:1"
   transform="matrix(-0.98862553,0,0,0.84235294,223.6778,0.27372352)"
   id="g1528">
</g>
<g
   inkscape:label="Layer 1"
   id="layer1"
   inkscape:groupmode="layer"><path
     id="path3275"
     d="m 78.476217,184.91891 c -6.268103,-1.18586 -12.858964,-3.50771 -16.33557,-5.75475 -6.201065,-4.00794 -8.846994,-8.69618 -8.846994,-15.67572 0,-3.04189 -0.159217,-3.54455 -1.442446,-4.55394 -0.793344,-0.62405 -1.788563,-1.13463 -2.211597,-1.13463 -1.300709,0 -4.754244,-2.00635 -6.274368,-3.64513 -3.761898,-4.05554 -4.81072,-10.68352 -2.656278,-16.78624 1.587426,-4.49658 1.254987,-5.87098 -1.861879,-7.69759 -4.896085,-2.8693 -7.042361,-6.77392 -7.10706,-12.92957 -0.03337,-3.17502 0.243408,-4.74612 1.220871,-6.93006 1.460318,-3.2628 1.212702,-4.15025 -1.927227,-6.90715 -3.071227,-2.69657 -4.71226,-6.52249 -4.994937,-11.645236 -0.204246,-3.701399 -0.04698,-4.861664 0.983752,-7.257659 0.674775,-1.568556 2.101656,-3.619999 3.170846,-4.558756 4.07064,-3.574074 3.009207,-3.458874 34.640846,-3.759664 l 28.785105,-0.273723 2.650596,-1.642341 c 3.252871,-2.01552 5.199113,-5.364631 5.199113,-8.946681 0,-1.997549 -0.57998,-3.495461 -2.987202,-7.715014 C 94.71077,50.494945 90.168837,40.876991 87.477796,33.803117 84.113498,24.959449 84.666294,19.735429 89.462636,15.04612 c 3.887849,-3.801096 9.733313,-5.2479861 15.007554,-3.714724 7.38915,2.148085 9.79591,4.828336 23.74679,26.445264 16.81921,26.061409 17.27352,26.453114 54.5479,47.030844 l 8.75915,4.835589 0.1512,33.394077 c 0.0831,18.36675 0.0176,33.94526 -0.14556,34.61891 -0.16321,0.67366 -0.84712,1.57843 -1.51981,2.01059 -0.73085,0.46954 -7.32024,1.5801 -16.37347,2.75955 l -15.15041,1.97378 -7.29492,3.78335 c -14.33418,7.43411 -29.02726,12.89091 -42.07192,15.6249 -8.60102,1.80266 -24.029445,2.36187 -30.642923,1.11066 z"
     style="fill:#d0e8ff;fill-opacity:1;stroke:#d0e8ff;stroke-width:0;stroke-miterlimit:4;stroke-dasharray:none;stroke-opacity:1" /></g></svg>
