<?xml version="1.0" encoding="UTF-8" standalone="no"?>
<svg
   xmlns:osb="http://www.openswatchbook.org/uri/2009/osb"
   xmlns:dc="http://purl.org/dc/elements/1.1/"
   xmlns:cc="http://creativecommons.org/ns#"
   xmlns:rdf="http://www.w3.org/1999/02/22-rdf-syntax-ns#"
   xmlns:svg="http://www.w3.org/2000/svg"
   xmlns="http://www.w3.org/2000/svg"
   xml:space="preserve"
   style="enable-background:new 0 0 204.249 204.249;"
   viewBox="0 0 204.249 204.249"
   y="0px"
   x="0px"
   id="Capa_1"
   version="1.1"><metadata
   id="metadata921"><rdf:RDF><cc:Work
       rdf:about=""><dc:format>image/svg+xml</dc:format><dc:type
         rdf:resource="http://purl.org/dc/dcmitype/StillImage" /><dc:title></dc:title></cc:Work></rdf:RDF></metadata><defs
   id="defs919"><linearGradient
     osb:paint="solid"
     id="linearGradient2881"><stop
       id="stop2879"
       offset="0"
       style="stop-color:#000202;stop-opacity:1;" /></linearGradient><linearGradient
     osb:paint="solid"
     id="linearGradient2873"><stop
       id="stop2871"
       offset="0"
       style="stop-color:#000202;stop-opacity:1;" /></linearGradient></defs>
<g
   transform="rotate(90,102.124,102.1245)"
   id="g884">
	<g
   id="g882">
		<g
   id="g880">
			<path
   id="path878"
   d="M 170.951,191.642 C 130.757,191.642 62.988,179.8 55.934,101.305 H 0 l 88.698,-88.698 88.698,88.698 h -58.221 c -1.174,8.779 -2.881,34.174 12.848,53.704 13.9,17.25 37.947,26 71.466,26 l 0.759,7.938 c -0.572,0.097 -14.243,2.695 -33.297,2.695 z M 89.954083,91.319193 63.393,93.295 l 0.24,3.751 c 4.259,67 -19.708793,-40.519763 24.719207,-38.568763 -15.375,-4.778 -27.486,43.186533 -36.211,32.332534 C 30.525207,63.903771 111.55,97.92 111.872,96.442 L 89.954083,91.319193 v 0 L 88.698,23.926 Z"
   style="fill:#ffffff;fill-opacity:1;fill-rule:nonzero" />
		</g>
	</g>
</g>
<g
   transform="rotate(90)"
   id="g886">
</g>
<g
   transform="rotate(90)"
   id="g888">
</g>
<g
   transform="rotate(90)"
   id="g890">
</g>
<g
   transform="rotate(90)"
   id="g892">
</g>
<g
   transform="rotate(90)"
   id="g894">
</g>
<g
   transform="rotate(90)"
   id="g896">
</g>
<g
   transform="rotate(90)"
   id="g898">
</g>
<g
   transform="rotate(90)"
   id="g900">
</g>
<g
   transform="rotate(90)"
   id="g902">
</g>
<g
   transform="rotate(90)"
   id="g904">
</g>
<g
   transform="rotate(90)"
   id="g906">
</g>
<g
   transform="rotate(90)"
   id="g908">
</g>
<g
   transform="rotate(90)"
   id="g910">
</g>
<g
   transform="rotate(90)"
   id="g912">
</g>
<g
   transform="rotate(90)"
   id="g914">
</g>
</svg>
