<?xml version="1.0" encoding="UTF-8" standalone="no"?>
<svg
   xmlns:dc="http://purl.org/dc/elements/1.1/"
   xmlns:cc="http://creativecommons.org/ns#"
   xmlns:rdf="http://www.w3.org/1999/02/22-rdf-syntax-ns#"
   xmlns:svg="http://www.w3.org/2000/svg"
   xmlns="http://www.w3.org/2000/svg"
   height="20"
   width="20"
   xml:space="preserve"
   viewBox="0 0 20 20"
   y="0px"
   x="0px"
   id="Layer_1"
   version="1.1"><metadata
   id="metadata907"><rdf:RDF><cc:Work
       rdf:about=""><dc:format>image/svg+xml</dc:format><dc:type
         rdf:resource="http://purl.org/dc/dcmitype/StillImage" /><dc:title></dc:title></cc:Work></rdf:RDF></metadata><defs
   id="defs905" />
<path
   style="fill:#003399;stroke-width:0.0583884"
   d="m 5.848423,10.200784 8.758138,-7.5637621 c 0.36806,-0.3178589 0.36806,-0.8331726 0,-1.1510304 -0.368057,-0.3178579 -0.964756,-0.3178579 -1.332816,5.34e-5 L 3.8492323,9.6253529 C 3.6724277,9.7779315 3.5731564,9.9849371 3.5731564,10.200784 c 0,0.215904 0.099334,0.422908 0.2760759,0.575543 l 9.4245127,8.138872 c 0.183968,0.158932 0.425172,0.238368 0.666378,0.238368 0.241204,0 0.482407,-0.07944 0.666438,-0.238421 0.36806,-0.317858 0.36806,-0.833172 0,-1.151031 z"
   id="XMLID_92_" />
<g
   id="g872">
</g>
<g
   id="g874">
</g>
<g
   id="g876">
</g>
<g
   id="g878">
</g>
<g
   id="g880">
</g>
<g
   id="g882">
</g>
<g
   id="g884">
</g>
<g
   id="g886">
</g>
<g
   id="g888">
</g>
<g
   id="g890">
</g>
<g
   id="g892">
</g>
<g
   id="g894">
</g>
<g
   id="g896">
</g>
<g
   id="g898">
</g>
<g
   id="g900">
</g>
<path
   id="path911"
   d="m 13.572717,19.115356 c -0.08316,-0.02419 -0.195562,-0.08389 -0.249786,-0.132669 C 13.19613,18.868617 12.304195,18.097495 11.778005,17.647021 11.553694,17.454986 11.059564,17.02852 10.679939,16.699318 10.300314,16.370116 9.8065111,15.94365 9.5825989,15.751616 9.3586873,15.559581 8.8745933,15.142043 8.5068354,14.823753 8.1390773,14.505463 7.6473968,14.080055 7.4142121,13.878402 7.1810274,13.676749 6.7489499,13.303081 6.4540398,13.048027 5.737549,12.42837 4.962987,11.758944 4.3028959,11.188872 4.004497,10.931167 3.7183996,10.651521 3.6671241,10.567436 3.5609168,10.39327 3.5447217,10.058488 3.6331184,9.8644782 3.683251,9.7544489 11.93393,2.5659611 13.087516,1.6272385 c 0.564219,-0.4591298 0.949347,-0.5184168 1.421702,-0.2188583 0.355925,0.2257208 0.478867,0.6170301 0.307391,0.9783876 -0.04596,0.09686 -0.345619,0.3962714 -0.710776,0.7101957 -0.347222,0.2985051 -0.90066,0.77552 -1.229861,1.0600332 -0.329202,0.2845133 -0.83984,0.725856 -1.13475,0.9807615 -0.29491,0.2549055 -0.783101,0.6766977 -1.08487,0.9373159 C 9.6982695,6.9025092 9.000966,7.5049188 8.4616728,7.9710867 8.1736211,8.2200796 7.6124815,8.7033371 7.2146958,9.0449923 6.8169101,9.3866471 6.4628354,9.6932348 6.4278631,9.7262987 6.3928908,9.7593625 6.2638286,9.8687244 6.1410584,9.9693255 6.0182881,10.069927 5.9178397,10.16993 5.9178397,10.191556 c 0,0.03599 0.3022029,0.308588 1.0766476,0.971184 0.1603217,0.137168 0.4069973,0.350401 0.5481678,0.473852 0.1411705,0.12345 0.3880719,0.336683 0.5486699,0.473851 0.1605979,0.137167 0.4074993,0.3504 0.54867,0.473851 0.1411703,0.123451 0.3880718,0.336684 0.5486699,0.473851 0.1605977,0.137168 0.4065959,0.350401 0.5466628,0.473852 0.1400664,0.12345 0.3867473,0.336684 0.5481793,0.473851 0.161432,0.137167 0.408442,0.350401 0.548911,0.473851 0.140469,0.123451 0.321049,0.279988 0.401289,0.34786 0.08024,0.06787 0.303011,0.258505 0.495046,0.423627 0.192034,0.165122 0.40287,0.345268 0.468524,0.400326 0.06565,0.05506 0.155437,0.134844 0.199517,0.177303 0.04408,0.04246 0.304601,0.266567 0.578936,0.498016 0.274335,0.231449 0.510013,0.434939 0.52373,0.4522 0.01372,0.01726 0.271841,0.23917 0.573609,0.49313 0.301769,0.25396 0.610396,0.552191 0.685838,0.662734 0.45654,0.668958 -0.312744,1.434525 -1.18619,1.180461 z"
   style="fill:#0577ea;stroke:none;stroke-width:0.0498791;fill-opacity:1" /></svg>
