<?xml version="1.0" encoding="UTF-8" standalone="no"?>
<svg
   xmlns:dc="http://purl.org/dc/elements/1.1/"
   xmlns:cc="http://creativecommons.org/ns#"
   xmlns:rdf="http://www.w3.org/1999/02/22-rdf-syntax-ns#"
   xmlns:svg="http://www.w3.org/2000/svg"
   xmlns="http://www.w3.org/2000/svg"
   height="20"
   width="30"
   xml:space="preserve"
   viewBox="0 0 30.000001 20.000001"
   y="0px"
   x="0px"
   id="Capa_1"
   version="1.1"><metadata
   id="metadata1796"><rdf:RDF><cc:Work
       rdf:about=""><dc:format>image/svg+xml</dc:format><dc:type
         rdf:resource="http://purl.org/dc/dcmitype/StillImage" /><dc:title></dc:title></cc:Work></rdf:RDF></metadata><defs
   id="defs1794" />
<g
   transform="matrix(1,0,0,0.68156864,20.183999,72.615994)"
   id="g1759">
	<g
   transform="matrix(0.04785652,0,0,0.04856804,-19.111646,-102.3782)"
   id="g1757">
		<path
   id="path1751"
   d="M 563.088,221.38343 H 549.084 L 549.78,132.6 c 0.22068,-28.15014 -22.848,-51 -51,-51 H 51 c -28.152,0 -51,22.848 -51,51 V 459 c 0,28.152 22.848,51 51,51 h 447.78 c 28.152,0 51,-22.848 51,-51 l 0.696,-75.50817 16.092,-5.10587 c 16.54944,-5.25101 23.46468,-31.0299 23.64,-47.95995 l 0.696,-67.20967 c 0.17532,-16.93005 -10.884,-41.83291 -27.816,-41.83291 z M 529.38,459 c 0,16.932 -13.668,30.6 -30.6,30.6 H 51 C 34.068,489.6 20.4,475.932 20.4,459 V 132.6 C 20.4,115.668 34.068,102 51,102 h 447.78 c 16.932,0 30.6,13.668 30.6,30.6 z m 43.212,-123.46812 c 0.0542,5.71144 -5.88,17.34821 -11.592,17.34821 H 549.78 V 244.84695 h 15.396 c 5.712,0 6.6658,11.63677 6.72,17.34821 z" />
		<path
   style="stroke-width:0.929238"
   id="path1753"
   d="m 476.45089,146.1916 -408.711096,0.91365 c -14.766391,0.033 -26.776427,12.22856 -26.776427,27.37737 v 255.52221 c 0,15.14882 12.01051,27.21297 26.776427,27.37738 l 410.251436,4.56815 c 14.76591,0.16442 25.47338,-21.36496 25.43297,-36.51367 l -0.67172,-251.8677 C 502.55559,158.42017 491.21729,146.1586 476.45089,146.1916 Z M 57.663893,302.09671 c 0,4.92793 -5.723108,100.43847 -3.729243,105.05688 l 13.805144,31.97703 c 1.894172,4.38751 132.758516,-24.33787 130.616146,-28.31201 L 73.414727,179.05077 c -2.142371,-3.97413 -2.025944,-15.70693 -5.674933,-13.69395 l -11.593078,6.39542 c -3.46654,1.91233 8.630395,12.17068 10.446513,16.43482 L 160.635,408.99135 Z" />
		
	</g>
</g>
<g
   id="g1761">
</g>
<g
   id="g1763">
</g>
<g
   id="g1765">
</g>
<g
   id="g1767">
</g>
<g
   id="g1769">
</g>
<g
   id="g1771">
</g>
<g
   id="g1773">
</g>
<g
   id="g1775">
</g>
<g
   id="g1777">
</g>
<g
   id="g1779">
</g>
<g
   id="g1781">
</g>
<g
   id="g1783">
</g>
<g
   id="g1785">
</g>
<g
   id="g1787">
</g>
<g
   id="g1789">
</g>
</svg>
