<?xml version="1.0" encoding="UTF-8" standalone="no"?>
<svg
   xmlns:dc="http://purl.org/dc/elements/1.1/"
   xmlns:cc="http://creativecommons.org/ns#"
   xmlns:rdf="http://www.w3.org/1999/02/22-rdf-syntax-ns#"
   xmlns:svg="http://www.w3.org/2000/svg"
   xmlns="http://www.w3.org/2000/svg"
   xmlns:sodipodi="http://sodipodi.sourceforge.net/DTD/sodipodi-0.dtd"
   xmlns:inkscape="http://www.inkscape.org/namespaces/inkscape"
   width="256px"
   height="256px"
   viewBox="0 0 256 256"
   id="Flat"
   version="1.1"
   sodipodi:docname="wa-checks-thin.svg"
   inkscape:version="1.0 (4035a4fb49, 2020-05-01)">
  <metadata
     id="metadata849">
    <rdf:RDF>
      <cc:Work
         rdf:about="">
        <dc:format>image/svg+xml</dc:format>
        <dc:type
           rdf:resource="http://purl.org/dc/dcmitype/StillImage" />
      </cc:Work>
    </rdf:RDF>
  </metadata>
  <defs
     id="defs847" />
  <sodipodi:namedview
     inkscape:document-rotation="0"
     pagecolor="#ffffff"
     bordercolor="#666666"
     borderopacity="1"
     objecttolerance="10"
     gridtolerance="10"
     guidetolerance="10"
     inkscape:pageopacity="0"
     inkscape:pageshadow="2"
     inkscape:window-width="1920"
     inkscape:window-height="1017"
     id="namedview845"
     showgrid="false"
     inkscape:zoom="3.2304688"
     inkscape:cx="133.77989"
     inkscape:cy="138.27321"
     inkscape:window-x="-8"
     inkscape:window-y="-8"
     inkscape:window-maximized="1"
     inkscape:current-layer="Flat" />
  <path
     d="m 120.66697,110.45678 a 3.1889209,4.329857 0 0 0 -2.17969,1.26954 L 50.581036,203.92944 17.752911,159.36108 a 3.1889209,4.329857 0 0 0 -4.509765,6.12305 l 35.082031,47.63086 a 3.1881054,4.3287499 0 0 0 4.509766,0 l 70.162107,-95.26563 a 3.1889209,4.329857 0 0 0 -2.19336,-7.39258 3.1889209,4.329857 0 0 0 -0.13672,0 z"
     style="display:inline;fill:#6699ff;stroke:#6699ff;stroke-width:4;stroke-miterlimit:4;stroke-dasharray:none;stroke-opacity:1"
     id="path842" />
  <path
     d="m 174.00458,110.18139 c -0.86685,-0.0221 -1.70361,0.43681 -2.31641,1.26953 l -67.90624,92.20313 -6.939458,-9.38086 c -3.00644,-4.01571 -7.139394,1.3713 -4.18164,5.45313 l 8.865238,13.11523 c 1.24513,1.69125 3.26463,1.69125 4.50976,0 l 70.16211,-95.26758 c 1.98968,-2.69936 0.61882,-7.32043 -2.19336,-7.39258 z"
     style="display:inline;fill:#6699ff;stroke:#6699ff;stroke-width:4;stroke-miterlimit:4;stroke-dasharray:none;stroke-opacity:1"
     id="path842-5" />
</svg>
