<?xml version="1.0" encoding="UTF-8" standalone="no"?>
<svg
   xmlns:dc="http://purl.org/dc/elements/1.1/"
   xmlns:cc="http://creativecommons.org/ns#"
   xmlns:rdf="http://www.w3.org/1999/02/22-rdf-syntax-ns#"
   xmlns:svg="http://www.w3.org/2000/svg"
   xmlns="http://www.w3.org/2000/svg"
   id="svg869"
   version="1.1"
   class="bi bi-camera"
   fill="currentColor"
   viewBox="0 0 16 16"
   height="16px"
   width="16px">
  <metadata
     id="metadata875">
    <rdf:RDF>
      <cc:Work
         rdf:about="">
        <dc:format>image/svg+xml</dc:format>
        <dc:type
           rdf:resource="http://purl.org/dc/dcmitype/StillImage" />
        <dc:title></dc:title>
      </cc:Work>
    </rdf:RDF>
  </metadata>
  <defs
     id="defs873" />
  <path
     style="fill:#3366cc;fill-opacity:1;stroke:none;stroke-width:0.916656"
     id="path865"
     d="m 14.514118,12.119215 a 0.92117647,0.91215686 0 0 1 -0.921177,0.912157 H 2.5388235 A 0.92117647,0.91215686 0 0 1 1.617647,12.119215 V 6.6462745 A 0.92117647,0.91215686 0 0 1 2.5388235,5.7341176 H 3.6184423 A 2.7635294,2.7364706 0 0 0 5.5713365,4.9323318 L 6.3359129,4.1770659 A 0.92117647,0.91215686 0 0 1 6.9853423,3.9098039 H 9.14458 a 0.92117647,0.91215686 0 0 1 0.6512721,0.267262 l 0.7627339,0.7552659 a 2.7635294,2.7364706 0 0 0 1.954736,0.8017858 h 1.079619 a 0.92117647,0.91215686 0 0 1 0.921177,0.9121569 z M 2.5388235,4.8219608 A 1.8423529,1.8243137 0 0 0 0.69647062,6.6462745 V 12.119215 A 1.8423529,1.8243137 0 0 0 2.5388235,13.943529 H 13.592941 a 1.8423529,1.8243137 0 0 0 1.842353,-1.824314 V 6.6462745 A 1.8423529,1.8243137 0 0 0 13.592941,4.8219608 H 12.513322 A 1.8423529,1.8243137 0 0 1 11.210779,4.2874369 L 10.448045,3.532171 A 1.8423529,1.8243137 0 0 0 9.1455012,2.997647 H 6.9862635 A 1.8423529,1.8243137 0 0 0 5.68372,3.532171 L 4.9209859,4.2874369 A 1.8423529,1.8243137 0 0 1 3.6184423,4.8219608 Z" />
  <path
     style="fill:#3366cc;stroke-width:0.916656"
     id="path867"
     d="m 8.0658823,11.207058 a 2.3029412,2.2803922 0 1 1 0,-4.5607835 2.3029412,2.2803922 0 0 1 0,4.5607835 z m 0,0.912157 a 3.2241176,3.192549 0 1 0 0,-6.3850974 3.2241176,3.192549 0 0 0 0,6.3850974 z M 3.46,7.1023529 a 0.46058825,0.45607844 0 1 1 -0.9211765,0 0.46058825,0.45607844 0 0 1 0.9211765,0 z" />
</svg>
