<?xml version="1.0" encoding="UTF-8" standalone="no"?>
<svg
   xmlns:dc="http://purl.org/dc/elements/1.1/"
   xmlns:cc="http://creativecommons.org/ns#"
   xmlns:rdf="http://www.w3.org/1999/02/22-rdf-syntax-ns#"
   xmlns:svg="http://www.w3.org/2000/svg"
   xmlns="http://www.w3.org/2000/svg"
   xml:space="preserve"
   style="enable-background:new 0 0 490.9 490.9;"
   viewBox="0 0 490.9 490.9"
   y="0px"
   x="0px"
   id="Capa_1"
   version="1.1"><metadata
   id="metadata2109"><rdf:RDF><cc:Work
       rdf:about=""><dc:format>image/svg+xml</dc:format><dc:type
         rdf:resource="http://purl.org/dc/dcmitype/StillImage" /><dc:title></dc:title></cc:Work></rdf:RDF></metadata><defs
   id="defs2107">
	
</defs>
<g
   id="g2070"
   style="fill:#3366cc">
		<path
   d="m 245.5,322.9 c 53,0 96.2,-43.2 96.2,-96.2 V 96.2 C 341.7,43.2 298.5,0 245.5,0 c -53,0 -96.2,43.2 -96.2,96.2 v 130.5 c 0,53.1 43.2,96.2 96.2,96.2 z M 173.8,96.2 c 0,-39.5 32.2,-71.7 71.7,-71.7 39.5,0 71.7,32.2 71.7,71.7 v 130.5 c 0,39.5 -32.2,71.7 -71.7,71.7 -39.5,0 -71.7,-32.2 -71.7,-71.7 z"
   id="path2066"
   style="fill:#3366cc" />
		<path
   d="m 94.4,214.5 c -6.8,0 -12.3,5.5 -12.3,12.3 0,85.9 66.7,156.6 151.1,162.8 v 76.7 l -0.15519,28.82194 c -0.0366,6.79991 -6.94593,-3.58369 -0.17188,-4.17725 0.36931,-0.0324 -3.52165,-0.0421 3.2761,0.0997 l 20.76768,0.43315 c 6.79851,0.1418 0.64431,12.43347 0.64431,5.63347 0,-6.8 0.13698,1.16811 0.13741,-5.63188 L 257.7,466.3 v -76.7 c 84.4,-6.3 151.1,-76.9 151.1,-162.8 0,-6.8 -5.5,-12.3 -12.3,-12.3 -6.8,0 -12.3,5.5 -12.3,12.3 0,76.6 -62.3,138.9 -138.9,138.9 -76.6,0 -138.9,-62.3 -138.9,-138.9 0.2,-6.8 -5.2,-12.3 -12,-12.3 z"
   id="path2068"
   style="fill:#3366cc" />
	</g>
<g
   id="g2074">
</g>
<g
   id="g2076">
</g>
<g
   id="g2078">
</g>
<g
   id="g2080">
</g>
<g
   id="g2082">
</g>
<g
   id="g2084">
</g>
<g
   id="g2086">
</g>
<g
   id="g2088">
</g>
<g
   id="g2090">
</g>
<g
   id="g2092">
</g>
<g
   id="g2094">
</g>
<g
   id="g2096">
</g>
<g
   id="g2098">
</g>
<g
   id="g2100">
</g>
<g
   id="g2102">
</g>
</svg>
