<?xml version="1.0" encoding="UTF-8" standalone="no"?>
<svg
   xmlns:dc="http://purl.org/dc/elements/1.1/"
   xmlns:cc="http://creativecommons.org/ns#"
   xmlns:rdf="http://www.w3.org/1999/02/22-rdf-syntax-ns#"
   xmlns:svg="http://www.w3.org/2000/svg"
   xmlns="http://www.w3.org/2000/svg"
   xmlns:sodipodi="http://sodipodi.sourceforge.net/DTD/sodipodi-0.dtd"
   xmlns:inkscape="http://www.inkscape.org/namespaces/inkscape"
   inkscape:version="1.0 (4035a4fb49, 2020-05-01)"
   sodipodi:docname="wa-phone.svg"
   version="1.1"
   id="Capa_1"
   x="0px"
   y="0px"
   viewBox="0 0 29.999999 20"
   xml:space="preserve"
   width="30"
   height="20"><sodipodi:namedview
   inkscape:current-layer="Capa_1"
   inkscape:window-maximized="1"
   inkscape:window-y="-8"
   inkscape:window-x="-8"
   inkscape:cy="10"
   inkscape:cx="15"
   inkscape:zoom="34.966667"
   showgrid="false"
   id="namedview2422"
   inkscape:window-height="1017"
   inkscape:window-width="1920"
   inkscape:pageshadow="2"
   inkscape:pageopacity="0"
   guidetolerance="10"
   gridtolerance="10"
   objecttolerance="10"
   borderopacity="1"
   bordercolor="#666666"
   pagecolor="#ffffff" /><metadata
   id="metadata4204"><rdf:RDF><cc:Work
       rdf:about=""><dc:format>image/svg+xml</dc:format><dc:type
         rdf:resource="http://purl.org/dc/dcmitype/StillImage" /><dc:title /></cc:Work></rdf:RDF></metadata><defs
   id="defs4202" />
<g
   id="g4167"
   transform="matrix(0.13645396,-1.0300383,0.92253982,0.15235418,-25.401913,208.64743)"
   style="stroke:#0577ea;stroke-opacity:1;fill:#0577ea;fill-opacity:1;stroke-width:0.59365913;stroke-miterlimit:4;stroke-dasharray:none">
	<g
   id="g4165"
   style="stroke:#0577ea;stroke-opacity:1;fill:#0577ea;fill-opacity:1;stroke-width:0.59365913;stroke-miterlimit:4;stroke-dasharray:none">
		<path
   style="fill:#0577ea;fill-opacity:1;stroke:#0577ea;stroke-width:0.59365913;stroke-miterlimit:4;stroke-dasharray:none;stroke-opacity:1"
   d="m 202.48621,8.0007339 -0.66318,-0.9089305 -0.0181,0.024992 c -0.28187,-0.3039598 -0.60786,-0.5594312 -0.95869,-0.7484701 -0.33331,-0.1745982 -0.6527,-0.2844578 -0.971,-0.3342429 -2.5618,-0.4249247 -4.90349,1.1879299 -8.07909,5.5648236 -4.39044,6.051841 -4.05874,10.92919 -4.04247,11.13842 0.0398,0.458659 0.11907,0.897721 0.24495,1.344354 0.13533,0.478851 0.3202,0.92629 0.54126,1.315472 l -0.0134,0.01987 0.65476,0.920131 c 0.48301,0.665359 1.25426,0.685258 1.7202,0.04413 l 2.34067,-3.224696 c 0.46418,-0.641831 0.44996,-1.70546 -0.0326,-2.370715 l -1.17901,-1.624493 c 0.0408,-0.102582 0.0839,-0.209639 0.12983,-0.320921 0.41253,-1.024948 0.97789,-2.428876 2.05088,-3.907422 1.07512,-1.482395 2.09573,-2.261556 2.84097,-2.831193 0.0792,-0.06034 0.15445,-0.118142 0.22685,-0.174588 l 0.79009,1.090284 0.38862,0.535192 c 0.48434,0.665359 1.25501,0.685154 1.72102,0.04413 l 2.33986,-3.22571 c 0.4652,-0.6411303 0.45084,-1.704352 -0.0325,-2.3704117 z m -0.48696,1.65486 -2.33964,3.2251131 c -0.17937,0.246489 -0.48617,0.2266 -0.68311,-0.04413 l -1.57836,-2.177033 -0.24596,0.200238 c -0.13666,0.11169 -0.28979,0.22912 -0.45656,0.355951 -0.78328,0.598823 -1.85657,1.419184 -3.00385,3.001034 -1.14568,1.578932 -1.74013,3.054457 -2.1739,4.132517 -0.0933,0.232058 -0.17907,0.445232 -0.26121,0.63608 l -0.14684,0.338279 1.58018,2.176636 c 0.19645,0.271439 0.21058,0.693529 0.0314,0.940729 l -2.33884,3.223994 c -0.18017,0.246803 -0.48512,0.227008 -0.68229,-0.0433 l -0.29346,-0.405161 -0.11248,-0.161568 c -0.17834,-0.255472 -0.42871,-0.696353 -0.61174,-1.339701 -0.102,-0.365352 -0.1678,-0.723824 -0.1993,-1.091089 -0.003,-0.0459 -0.28685,-4.632375 3.83116,-10.308774 3.50261,-4.8267579 5.51992,-5.6004709 7.4746,-5.2760262 0.25909,0.040782 0.52022,0.1308781 0.79273,0.2724534 0.46886,0.253359 0.78825,0.5988117 0.97312,0.8441921 l 0.41171,0.5601318 c 0.19755,0.2715436 0.21168,0.6926308 0.0327,0.939423 z"
   id="path4163" />
	</g>
</g>
<g
   id="g4169"
   transform="rotate(-90)">
</g>
<g
   id="g4171"
   transform="rotate(-90)">
</g>
<g
   id="g4173"
   transform="rotate(-90)">
</g>
<g
   id="g4175"
   transform="rotate(-90)">
</g>
<g
   id="g4177"
   transform="rotate(-90)">
</g>
<g
   id="g4179"
   transform="rotate(-90)">
</g>
<g
   id="g4181"
   transform="rotate(-90)">
</g>
<g
   id="g4183"
   transform="rotate(-90)">
</g>
<g
   id="g4185"
   transform="rotate(-90)">
</g>
<g
   id="g4187"
   transform="rotate(-90)">
</g>
<g
   id="g4189"
   transform="rotate(-90)">
</g>
<g
   id="g4191"
   transform="rotate(-90)">
</g>
<g
   id="g4193"
   transform="rotate(-90)">
</g>
<g
   id="g4195"
   transform="rotate(-90)">
</g>
<g
   id="g4197"
   transform="rotate(-90)">
</g>
</svg>
