<?xml version="1.0" encoding="UTF-8" standalone="no"?>
<svg
   xmlns:dc="http://purl.org/dc/elements/1.1/"
   xmlns:cc="http://creativecommons.org/ns#"
   xmlns:rdf="http://www.w3.org/1999/02/22-rdf-syntax-ns#"
   xmlns:svg="http://www.w3.org/2000/svg"
   xmlns="http://www.w3.org/2000/svg"
   id="svg845"
   version="1.1"
   viewBox="0 0 24 24"
   height="24px"
   width="24px">
  <metadata
     id="metadata851">
    <rdf:RDF>
      <cc:Work
         rdf:about="">
        <dc:format>image/svg+xml</dc:format>
        <dc:type
           rdf:resource="http://purl.org/dc/dcmitype/StillImage" />
        <dc:title></dc:title>
      </cc:Work>
    </rdf:RDF>
  </metadata>
  <defs
     id="defs849" />
  <path
     style="fill:#3366cc"
     id="path843"
     d="M20,11.5 L20,7.5 C20,5.56700338 18.4329966,4 16.5,4 L7.5,4 C5.56700338,4 4,5.56700338 4,7.5 L4,16.5 C4,18.4329966 5.56700338,20 7.5,20 L12.5,20 C13.3284271,20 14,19.3284271 14,18.5 L14,16.5 C14,14.5670034 15.5670034,13 17.5,13 L18.5,13 C19.3284271,13 20,12.3284271 20,11.5 Z M19.9266247,13.5532532 C19.522053,13.8348821 19.0303092,14 18.5,14 L17.5,14 C16.1192881,14 15,15.1192881 15,16.5 L15,18.5 C15,18.9222858 14.8952995,19.3201175 14.7104416,19.668952 C17.4490113,18.8255402 19.5186665,16.4560464 19.9266247,13.5532532 L19.9266247,13.5532532 Z M7.5,3 L16.5,3 C18.9852814,3 21,5.01471863 21,7.5 L21,12.5 C21,17.1944204 17.1944204,21 12.5,21 L7.5,21 C5.01471863,21 3,18.9852814 3,16.5 L3,7.5 C3,5.01471863 5.01471863,3 7.5,3 Z" />
</svg>
