<?xml version="1.0" encoding="UTF-8" standalone="no"?>
<svg
   xmlns:dc="http://purl.org/dc/elements/1.1/"
   xmlns:cc="http://creativecommons.org/ns#"
   xmlns:rdf="http://www.w3.org/1999/02/22-rdf-syntax-ns#"
   xmlns:svg="http://www.w3.org/2000/svg"
   xmlns="http://www.w3.org/2000/svg"
   height="30"
   width="30"
   xml:space="preserve"
   viewBox="0 0 30.000001 30.000001"
   y="0px"
   x="0px"
   id="Capa_1"
   version="1.1"><metadata
   id="metadata1037"><rdf:RDF><cc:Work
       rdf:about=""><dc:format>image/svg+xml</dc:format><dc:type
         rdf:resource="http://purl.org/dc/dcmitype/StillImage" /><dc:title></dc:title></cc:Work></rdf:RDF></metadata><defs
   id="defs1035" />
<g
   id="g1000">
	<g
   transform="matrix(0.07791332,0,0,0.07735082,-3.9921943,-3.3441942)"
   id="g998">
		<path
   id="path990"
   d="m 79.55,229.675 c -10.2,10.2 -10.2,26.8 0,37.1 10.2,10.2 26.8,10.2 37.1,0 70.6,-70.6 185.5,-70.6 256.1,0 5.1,5.1 11.8,7.7 18.5,7.7 6.7,0 13.4,-2.6 18.5,-7.7 10.2,-10.2 10.2,-26.8 0,-37.1 -91,-91.1 -239.2,-91.1 -330.2,0 z" />
		<path
   id="path992"
   d="m 150.35,300.475 c -10.2,10.2 -10.2,26.8 0,37.1 10.2,10.2 26.8,10.2 37.1,0 31.5,-31.6 82.9,-31.6 114.4,0 5.1,5.1 11.8,7.7 18.5,7.7 6.7,0 13.4,-2.6 18.5,-7.7 10.2,-10.2 10.2,-26.8 0,-37 -51.9,-52.1 -136.5,-52.1 -188.5,-0.1 z" />
		<circle
   id="circle994"
   r="34.900002"
   cy="394.67499"
   cx="244.64999" />
		<path
   style="display:none"
   id="path996"
   d="m 481.65,157.675 c -130.7,-130.6 -343.3,-130.6 -474,0 -10.2,10.2 -10.2,26.8 0,37.1 10.2,10.2 26.8,10.2 37.1,0 110.2,-110.3 289.6,-110.3 399.9,0 5.1,5.1 11.8,7.7 18.5,7.7 6.7,0 13.4,-2.6 18.5,-7.7 10.2,-10.2 10.2,-26.8 0,-37.1 z" />
	</g>
</g>
<g
   id="g1002">
</g>
<g
   id="g1004">
</g>
<g
   id="g1006">
</g>
<g
   id="g1008">
</g>
<g
   id="g1010">
</g>
<g
   id="g1012">
</g>
<g
   id="g1014">
</g>
<g
   id="g1016">
</g>
<g
   id="g1018">
</g>
<g
   id="g1020">
</g>
<g
   id="g1022">
</g>
<g
   id="g1024">
</g>
<g
   id="g1026">
</g>
<g
   id="g1028">
</g>
<g
   id="g1030">
</g>
</svg>
