<?xml version="1.0" encoding="UTF-8" standalone="no"?>
<svg
   xmlns:dc="http://purl.org/dc/elements/1.1/"
   xmlns:cc="http://creativecommons.org/ns#"
   xmlns:rdf="http://www.w3.org/1999/02/22-rdf-syntax-ns#"
   xmlns:svg="http://www.w3.org/2000/svg"
   xmlns="http://www.w3.org/2000/svg"
   height="20"
   width="30"
   xml:space="preserve"
   viewBox="0 0 29.999999 19.999999"
   y="0px"
   x="0px"
   id="Capa_1"
   version="1.1"><metadata
   id="metadata1132"><rdf:RDF><cc:Work
       rdf:about=""><dc:format>image/svg+xml</dc:format><dc:type
         rdf:resource="http://purl.org/dc/dcmitype/StillImage" /><dc:title></dc:title></cc:Work></rdf:RDF></metadata><defs
   id="defs1130" />
<g
   transform="matrix(-0.24813741,0,0,0.09993505,27.984201,3.2958475)"
   id="g1095">
	<path
   style="stroke-width:0.931027"
   id="path1087"
   d="m 10.650401,22.126542 c -4.9709997,0 -8.9999997,3.492382 -8.9999997,7.8013 V 156.139 c 0,4.30892 4.029,7.8013 8.9999997,7.8013 4.971,0 9,-3.49238 9,-7.8013 V 29.927842 c 0,-4.308918 -4.029,-7.8013 -9,-7.8013 z" />
	
	
	
<path
   d="m 37.160346,56.270705 c -5.260807,-0.15573 -9.616291,4.944651 -9,10.099691 0.0078,29.949778 -0.01561,59.899954 0.01171,89.849484 0.0753,6.00714 7.057751,10.3729 12.491681,7.82962 4.010693,-1.55307 5.937151,-5.97427 5.496609,-10.05231 -0.0078,-29.72984 0.01561,-59.46007 -0.01171,-89.189662 -0.149892,-4.660843 -4.324436,-8.626091 -8.98829,-8.536823 z"
   id="path1695" /><path
   d="m 62.246237,100.16852 c -4.971,0 -9,4.029 -9,9 v 45.243 c 0,4.971 4.029,9 9,9 4.971,0 9,-4.029 9,-9 v -45.243 c 0,-4.97 -4.029,-9 -9,-9 z"
   id="path1697" /><path
   d="m 86.865407,130.79075 c -4.971,0 -9,4.029 -9,9 v 14.092 c 0,4.971 4.029,9 9,9 4.971,0 9,-4.029 9,-9 v -14.092 c 0,-4.97 -4.029,-9 -9,-9 z"
   id="path1699" /></g>
<g
   transform="matrix(-1,0,0,1,163.604,0)"
   id="g1097">
</g>
<g
   transform="matrix(-1,0,0,1,163.604,0)"
   id="g1099">
</g>
<g
   transform="matrix(-1,0,0,1,163.604,0)"
   id="g1101">
</g>
<g
   transform="matrix(-1,0,0,1,163.604,0)"
   id="g1103">
</g>
<g
   transform="matrix(-1,0,0,1,163.604,0)"
   id="g1105">
</g>
<g
   transform="matrix(-1,0,0,1,163.604,0)"
   id="g1107">
</g>
<g
   transform="matrix(-1,0,0,1,163.604,0)"
   id="g1109">
</g>
<g
   transform="matrix(-1,0,0,1,163.604,0)"
   id="g1111">
</g>
<g
   transform="matrix(-1,0,0,1,163.604,0)"
   id="g1113">
</g>
<g
   transform="matrix(-1,0,0,1,163.604,0)"
   id="g1115">
</g>
<g
   transform="matrix(-1,0,0,1,163.604,0)"
   id="g1117">
</g>
<g
   transform="matrix(-1,0,0,1,163.604,0)"
   id="g1119">
</g>
<g
   transform="matrix(-1,0,0,1,163.604,0)"
   id="g1121">
</g>
<g
   transform="matrix(-1,0,0,1,163.604,0)"
   id="g1123">
</g>
<g
   transform="matrix(-1,0,0,1,163.604,0)"
   id="g1125">
</g>
</svg>
